# xmcd
#
# Track frame offsets:
# 150
# 18224
# 37752
# 56792
# 79707
# 91935
# 113136
# 132634
# 146549
# 169206
#
# Disc length: 2496 seconds
#
#
# Revision: 0
# Processed by: cddbd v1.5.1PL2 Copyright (c) Steve Scherf et al.
# Submitted via: FreeRIP 2.944 
#
DISCID=7d09be0a
DTITLE=Daniel e Samuel - Historia de Tereza
DYEAR=1900
DGENRE=Gospel
TTITLE0=Só Jesus
TTITLE1=Sou Jesus
TTITLE2=Ninguém Pode impedir
TTITLE3=Tudo Ele vai resolver
TTITLE4=Medico dos Medicos
TTITLE5=Historia de Tereza
TTITLE6=O amor
TTITLE7=Igreja que glorifica
TTITLE8=Menino de Rua
TTITLE9=Quanto sao
EXTD=
EXTT0=
EXTT1=
EXTT2=
EXTT3=
EXTT4=
EXTT5=
EXTT6=
EXTT7=
EXTT8=
EXTT9=
PLAYORDER=
